<?xml version="1.0" encoding="UTF-8" standalone="no"?>
<svg
   xmlns:dc="http://purl.org/dc/elements/1.1/"
   xmlns:cc="http://creativecommons.org/ns#"
   xmlns:rdf="http://www.w3.org/1999/02/22-rdf-syntax-ns#"
   xmlns:svg="http://www.w3.org/2000/svg"
   xmlns="http://www.w3.org/2000/svg"
   xmlns:sodipodi="http://sodipodi.sourceforge.net/DTD/sodipodi-0.dtd"
   xmlns:inkscape="http://www.inkscape.org/namespaces/inkscape"
   enable-background="new 0 0 48 48"
   height="32"
   id="Layer_1"
   version="1.1"
   viewBox="0 0 32 32"
   width="32"
   xml:space="preserve"
   inkscape:version="0.91 r13725"
   sodipodi:docname="less.svg"><metadata
     id="metadata13"><rdf:RDF><cc:Work
         rdf:about=""><dc:format>image/svg+xml</dc:format><dc:type
           rdf:resource="http://purl.org/dc/dcmitype/StillImage" /><dc:title></dc:title></cc:Work></rdf:RDF></metadata><defs
     id="defs11" /><sodipodi:namedview
     pagecolor="#ffffff"
     bordercolor="#666666"
     borderopacity="1"
     objecttolerance="10"
     gridtolerance="10"
     guidetolerance="10"
     inkscape:pageopacity="0"
     inkscape:pageshadow="2"
     inkscape:window-width="757"
     inkscape:window-height="480"
     id="namedview9"
     showgrid="false"
     inkscape:zoom="4.9166667"
     inkscape:cx="6.4067795"
     inkscape:cy="24"
     inkscape:window-x="134"
     inkscape:window-y="142"
     inkscape:window-maximized="0"
     inkscape:current-layer="Layer_1"
     inkscape:snap-global="false" /><g
     id="g3"
     style="fill:#4d4d4d"
     transform="scale(0.66666667,0.66666667)"><path
       d="M 24,0 C 10.745,0 0,10.745 0,24 0,37.255 10.745,48 24,48 37.255,48 48,37.255 48,24 48,10.745 37.255,0 24,0 Z m 0.028,43.844 c -11.022,0 -19.959,-8.936 -19.959,-19.959 0,-11.023 8.937,-19.959 19.959,-19.959 11.023,0 19.96,8.936 19.96,19.959 0,11.023 -8.936,19.959 -19.96,19.959 z"
       id="path5"
       style="fill:#4d4d4d"
       inkscape:connector-curvature="0" /><path
       d="m 32.677,26.099 c 0.454,-0.027 1.354,-0.223 1.354,-1.333 l 0,-1.578 c 0,-1.181 -1.166,-1.28 -1.472,-1.286 l -17.262,0 c -1.22,0 -1.323,0.941 -1.328,1.21 l 0,1.809 c 0.006,0.247 0.108,1.178 1.328,1.178 l 17.38,0 z"
       id="path7"
       style="fill:#4d4d4d"
       inkscape:connector-curvature="0" /></g></svg>