<?xml version="1.0" encoding="UTF-8" standalone="no"?>
<svg
   xmlns:dc="http://purl.org/dc/elements/1.1/"
   xmlns:cc="http://creativecommons.org/ns#"
   xmlns:rdf="http://www.w3.org/1999/02/22-rdf-syntax-ns#"
   xmlns:svg="http://www.w3.org/2000/svg"
   xmlns="http://www.w3.org/2000/svg"
   xmlns:sodipodi="http://sodipodi.sourceforge.net/DTD/sodipodi-0.dtd"
   xmlns:inkscape="http://www.inkscape.org/namespaces/inkscape"
   enable-background="new 0 0 48 48"
   height="32"
   id="Layer_1"
   version="1.1"
   viewBox="0 0 32 32"
   width="32"
   xml:space="preserve"
   inkscape:version="0.91 r13725"
   sodipodi:docname="more.svg"><metadata
     id="metadata13"><rdf:RDF><cc:Work
         rdf:about=""><dc:format>image/svg+xml</dc:format><dc:type
           rdf:resource="http://purl.org/dc/dcmitype/StillImage" /><dc:title></dc:title></cc:Work></rdf:RDF></metadata><defs
     id="defs11" /><sodipodi:namedview
     pagecolor="#ffffff"
     bordercolor="#666666"
     borderopacity="1"
     objecttolerance="10"
     gridtolerance="10"
     guidetolerance="10"
     inkscape:pageopacity="0"
     inkscape:pageshadow="2"
     inkscape:window-width="757"
     inkscape:window-height="480"
     id="namedview9"
     showgrid="false"
     inkscape:zoom="4.9166667"
     inkscape:cx="-1.5254236"
     inkscape:cy="24"
     inkscape:window-x="97"
     inkscape:window-y="121"
     inkscape:window-maximized="0"
     inkscape:current-layer="Layer_1" /><g
     id="g3"
     style="fill:#4d4d4d"
     transform="scale(0.66666667,0.66666667)"><path
       d="M 24,0 C 10.745,0 0,10.746 0,24 0,37.255 10.745,48 24,48 37.255,48 48,37.256 48,24 48,10.746 37.255,0 24,0 Z m 0.029,43.844 C 13.006,43.844 4.07,34.908 4.07,23.886 c 0,-11.022 8.936,-19.96 19.959,-19.96 11.022,0 19.959,8.936 19.959,19.959 0,11.023 -8.936,19.959 -19.959,19.959 z"
       id="path5"
       style="fill:#4d4d4d"
       inkscape:connector-curvature="0" /><path
       d="m 32.56,21.902 -6.458,0 0.008,-6.576 C 26.084,14.872 25.889,13.972 24.779,13.97 L 23.2,13.968 c -1.181,-10e-4 -1.282,1.165 -1.288,1.47 l -0.008,6.463 -6.607,0 c -1.22,0 -1.323,0.941 -1.328,1.21 l 0,1.809 c 0.006,0.247 0.107,1.178 1.328,1.178 l 6.602,0 -0.008,6.602 c -0.002,1.219 0.939,1.324 1.209,1.33 l 1.809,0.002 c 0.247,-0.006 1.178,-0.107 1.18,-1.326 l 0.008,-6.607 6.581,0 c 0.454,-0.027 1.354,-0.223 1.354,-1.333 l 0,-1.578 c -10e-4,-1.181 -1.167,-1.28 -1.472,-1.286 z"
       id="path7"
       style="fill:#4d4d4d"
       inkscape:connector-curvature="0" /></g></svg>