<?xml version="1.0" encoding="UTF-8" standalone="no"?>
<svg
   xmlns:dc="http://purl.org/dc/elements/1.1/"
   xmlns:cc="http://creativecommons.org/ns#"
   xmlns:rdf="http://www.w3.org/1999/02/22-rdf-syntax-ns#"
   xmlns:svg="http://www.w3.org/2000/svg"
   xmlns="http://www.w3.org/2000/svg"
   xmlns:sodipodi="http://sodipodi.sourceforge.net/DTD/sodipodi-0.dtd"
   xmlns:inkscape="http://www.inkscape.org/namespaces/inkscape"
   height="32px"
   id="Layer_1"
   style="enable-background:new 0 0 32 32;"
   version="1.1"
   viewBox="0 0 32 32"
   width="32px"
   xml:space="preserve"
   inkscape:version="0.91 r13725"
   sodipodi:docname="sound1.svg"><metadata
     id="metadata9"><rdf:RDF><cc:Work
         rdf:about=""><dc:format>image/svg+xml</dc:format><dc:type
           rdf:resource="http://purl.org/dc/dcmitype/StillImage" /><dc:title></dc:title></cc:Work></rdf:RDF></metadata><defs
     id="defs7" /><sodipodi:namedview
     pagecolor="#ffffff"
     bordercolor="#666666"
     borderopacity="1"
     objecttolerance="10"
     gridtolerance="10"
     guidetolerance="10"
     inkscape:pageopacity="0"
     inkscape:pageshadow="2"
     inkscape:window-width="718"
     inkscape:window-height="480"
     id="namedview5"
     showgrid="false"
     inkscape:zoom="7.375"
     inkscape:cx="16"
     inkscape:cy="16"
     inkscape:window-x="0"
     inkscape:window-y="28"
     inkscape:window-maximized="0"
     inkscape:current-layer="Layer_1" /><path
     d="M14,2c-0.781,0-1.313,0.438-2,1.016L6,8H2c-1.1,0-2,0.9-2,2v12c0,1.1,0.9,2,2,2h4l6,4.984C12.688,29.563,13.219,30,14,30  c1.219,0,2-0.984,2-2V4C16,2.984,15.219,2,14,2z M12,23.784L7.445,20H4v-8h3.445L12,8.216V23.784z M20,6c-1.25,0-2,1.047-2,2  c0,1.422,2,2.781,2,8s-2,6.578-2,8c0,0.953,0.75,2,2,2c1.016,0,1.625-0.547,2.281-2C23.51,21.279,24,18.672,24,16  s-0.49-5.279-1.719-8C21.625,6.547,21.016,6,20,6z M29.146,4c-0.838-1.771-1.63-2-2.333-2c-1.188,0-2,1-2,2  C24.813,5.672,28,8.531,28,16s-3.188,10.328-3.188,12c0,1,0.813,2,2,2c0.703,0,1.495-0.229,2.333-2C30.063,26.063,32,22.156,32,16  S30.063,5.938,29.146,4z"
     id="path3"
     style="fill:#4d4d4d" /></svg>