<?xml version="1.0" standalone="no"?>
<!DOCTYPE svg PUBLIC "-//W3C//DTD SVG 20010904//EN"
 "http://www.w3.org/TR/2001/REC-SVG-20010904/DTD/svg10.dtd">
<svg version="1.0" xmlns="http://www.w3.org/2000/svg"
 width="16.000000pt" height="16.000000pt" viewBox="0 0 16.000000 16.000000"
 preserveAspectRatio="xMidYMid meet">
<metadata>
Created by potrace 1.11, written by Peter Selinger 2001-2013
</metadata>
<g transform="translate(0.000000,16.000000) scale(0.002083,-0.002083)"
fill="#000000" stroke="none">
<path d="M4375 7103 c-93 -19 -146 -63 -200 -168 l-34 -65 22 -21 c12 -11 34
-28 50 -37 15 -9 27 -20 27 -24 0 -4 -15 1 -32 12 -44 27 -53 26 -102 -14 -46
-38 -105 -66 -181 -85 -73 -19 -89 -28 -202 -112 -120 -89 -183 -162 -208
-239 -10 -30 -31 -86 -46 -124 -28 -66 -51 -173 -64 -286 -4 -41 -13 -62 -34
-85 -35 -38 -207 -260 -221 -285 -9 -16 -31 -108 -46 -190 -9 -46 -16 -63 -57
-129 -22 -36 -50 -89 -63 -118 -25 -56 -80 -266 -90 -347 -5 -33 -19 -69 -42
-103 -43 -65 -93 -200 -162 -438 -39 -133 -90 -265 -102 -265 -16 0 -56 -104
-102 -262 l-45 -158 15 -57 c16 -62 51 -167 90 -272 13 -35 26 -76 29 -90 2
-14 9 -48 14 -75 8 -42 6 -50 -10 -65 -19 -16 -52 -105 -63 -172 -3 -19 -10
-61 -16 -94 -14 -83 -14 -83 23 -93 23 -6 37 -18 48 -43 20 -40 18 -45 -27
-64 -28 -11 -34 -19 -34 -44 0 -24 6 -31 33 -41 73 -27 85 -28 105 -14 19 13
22 10 55 -49 35 -65 45 -89 53 -132 7 -41 95 -235 119 -264 12 -14 41 -52 63
-84 37 -53 40 -61 30 -89 -14 -39 11 -75 75 -105 49 -25 87 -67 112 -127 13
-30 27 -43 70 -62 42 -19 59 -23 74 -15 14 8 24 6 42 -8 35 -27 99 -57 138
-66 45 -10 155 -86 209 -144 64 -69 185 -257 215 -334 15 -37 27 -87 27 -111
0 -36 18 -111 56 -239 9 -30 40 -34 137 -17 l92 16 32 104 c27 87 32 115 27
165 -7 75 -58 315 -79 375 -27 77 -19 167 36 422 6 25 12 57 13 70 6 53 20 98
57 184 59 139 105 211 155 240 24 14 56 45 73 72 36 58 125 277 158 392 40
141 72 256 78 283 2 10 6 26 9 35 3 9 7 35 11 57 8 58 15 95 25 140 5 22 12
56 15 75 3 19 12 71 20 115 8 44 17 109 19 145 3 36 8 106 12 155 3 50 8 205
9 345 2 140 6 271 8 290 19 143 26 362 17 465 -2 22 -13 52 -23 67 -19 25 -19
45 -4 103 36 131 57 186 105 278 31 60 66 116 78 126 21 17 21 17 2 41 -16 20
-19 37 -17 109 3 104 18 151 59 189 30 26 32 31 31 97 0 39 -2 77 -4 85 -11
51 -31 87 -55 101 -22 13 -34 36 -66 135 -34 104 -39 131 -40 215 0 93 1 97
46 190 49 99 96 155 165 195 59 35 60 47 2 88 -27 20 -53 36 -58 36 -5 0 -11
4 -13 8 -1 4 -31 26 -64 47 l-61 40 -124 -1 c-102 -2 -132 2 -174 18 -60 24
-149 90 -172 128 -25 43 -105 82 -148 73z"/>
</g>
</svg>
